# xmcd
#
# Track frame offsets:
#	150
#	11727
#	23931
#	34691
#	47252
#	58065
#	67814
#	76850
#	85493
#	95992
#	106564
#	114802
#	124671
#	133985
#	144710
#	154934
#	165853
#
# Disc length: 2337 seconds
# Revision: 0
# Processed by: cddbd v1.5.2PL0 Copyright (c) Steve Scherf et al.
# Submitted via: dBpowerAMP V12.0
#
DISCID=d4091f11
DTITLE=Various Artist - It'd Surprise You
DYEAR=2010
DGENRE=Rockabilly
TTITLE0=Annita and The Starbombers - Mr. Fly-By-Night
TTITLE1=Annita and The Starbombers - Which One Is To Blame
TTITLE2=Annita and The Starbombers - It'd Surprise You
TTITLE3=Annita and The Starbombers - I'll Never Be Free
TTITLE4=Annita and The Starbombers - Stop
TTITLE5=Annita and The Starbombers - I'll Keep On Loving You
TTITLE6=Annita and The Starbombers - I Wish I'd Never
TTITLE7=Annita and The Starbombers - Barbed Wire Love
TTITLE8=Annita and The Starbombers - I Gotta Have You
TTITLE9=Annita and The Starbombers - Columbus G.A.
TTITLE10=Annita and The Starbombers - Trying To Forget You
TTITLE11=Annita and The Starbombers - Burn That Candle
TTITLE12=Annita and The Starbombers - Not Anymore
TTITLE13=Annita and The Starbombers - You Won't Find Me Singing The Blues For You
TTITLE14=Annita and The Starbombers - Strange
TTITLE15=Annita and The Starbombers - We Did
TTITLE16=The Barnstombers - I Hear You Talking
EXTD=
EXTT0=
EXTT1=
EXTT2=
EXTT3=
EXTT4=
EXTT5=
EXTT6=
EXTT7=
EXTT8=
EXTT9=
EXTT10=
EXTT11=
EXTT12=
EXTT13=
EXTT14=
EXTT15=
EXTT16=
PLAYORDER=
